# ProBuilder 5.2.3
# https://unity3d.com/unity/features/worldbuilding/probuilder
# 20.12.2024 21:15:36

mtllib ./group_149.mtl
o group_149

g group_149
v 8.859175E-05 3.936912 0.00939535
v 11.02374 3.936912 0.00939535
v 11.02374 -0.0001011467 0.00939725
v 11.02362 3.937008 -3.606023E-06
v 3.606023E-06 3.937008 -3.606023E-06
v 11.02362 -3.606023E-06 -3.606023E-06
v 8.859175E-05 -0.0001011467 0.00939725
v 3.606023E-06 -3.606023E-06 -3.606023E-06

vt 0 1
vt 1 1
vt 1 0
vt 0 0
vt 11.02362 -3.568415E-06
vt 11.02374 0.009397794
vt 8.859175E-05 0.009397794
vt -3.573277E-06 3.937008
vt 0.009397666 -0.0001011467
vt 0.009395766 3.936912
vt -3.606023E-06 -0.04014849
vt -11.02362 -0.04014849
vt -8.859175E-05 -0.03074905
vt -11.02374 -0.03074905
vt -0.1409188 3.937008
vt -0.1409188 -3.606023E-06
vt -0.1503185 3.936912
vt -0.1503204 -0.0001011467

vn 0 4.825735E-07 1
vn 0 0 -1
vn 0 -0.9999462 -0.01037517
vn -0.9999591 0 0.009039843
vn 0 0.999948 0.0101968
vn 0.9999183 0 -0.01278367

usemtl perehod
f 3/3/1 2/2/1 1/1/1
f 6/3/2 5/1/2 4/2/2
f 1/1/1 7/4/1 3/3/1
f 5/1/2 6/3/2 8/4/2
f 7/7/3 8/4/3 6/5/3
f 6/5/3 3/6/3 7/7/3
f 1/10/4 5/8/4 8/4/4
f 8/4/4 7/9/4 1/10/4
f 2/14/5 4/12/5 5/11/5
f 5/11/5 1/13/5 2/14/5
f 3/18/6 6/16/6 4/15/6
f 4/15/6 2/17/6 3/18/6

